<svg width="24" height="24" viewBox="0 0 24 24" fill="none" xmlns="http://www.w3.org/2000/svg">
<path d="M21.6491 16.6738C21.5698 16.5512 21.4408 16.4694 21.2961 16.4498C19.392 16.2011 18.05 14.4559 18.2987 12.5518C18.4744 11.2068 19.4162 10.0868 20.7111 9.68286C20.9741 9.59858 21.119 9.3171 21.0347 9.05413C21.0216 9.01321 21.0033 8.97411 20.9802 8.93783C20.1064 7.36088 18.5527 6.27634 16.7712 5.99988C15.8735 6.04272 14.9887 6.23223 14.1522 6.56087C13.5514 6.80265 12.917 6.95073 12.2712 6.99985C11.6254 6.95073 10.991 6.80265 10.3903 6.56087C9.55373 6.23223 8.66903 6.04272 7.77128 5.99988C5.90432 5.99988 2.27135 8.64684 2.27135 13.4998C2.27135 18.1117 5.63531 23.9997 8.27129 23.9997C9.27708 24.0087 10.2708 23.7798 11.1713 23.3317C11.5104 23.1447 11.8853 23.0315 12.2713 22.9997C12.6573 23.0315 13.0322 23.1447 13.3713 23.3317C14.2718 23.7798 15.2655 24.0087 16.2713 23.9997C18.3613 23.9997 20.7202 20.4117 21.7082 17.0868C21.7496 16.9471 21.728 16.7963 21.6491 16.6738Z" fill="#000000"/>
<path d="M11.7712 5.99994C14.8073 5.99661 17.2678 3.53617 17.2711 0.500011C17.2711 0.223873 17.0473 0 16.7712 0C13.735 0.00332809 11.2745 2.46377 11.2712 5.49993C11.2712 5.77607 11.4951 5.99994 11.7712 5.99994Z" fill="#000000"/>
</svg>
